<svg xmlns="http://www.w3.org/2000/svg" viewBox="0 0 319.99 93.6"><defs><style>.cls-1{fill:#007dfc;}</style></defs><g id="Layer_2" data-name="Layer 2"><g id="Layer_1-2" data-name="Layer 1"><path class="cls-1" d="M147.85,24.55a20.57,20.57,0,0,0-9.95-2.35,21.3,21.3,0,0,0-10.25,2.45,19.06,19.06,0,0,0-5.28,4.18,17,17,0,0,0-5-4.33,18.23,18.23,0,0,0-9.15-2.3,20.59,20.59,0,0,0-9.7,2.25,17.33,17.33,0,0,0-3.4,2.33V23.2H79.8V71.8H95.1V43.4a7.84,7.84,0,0,1,1.05-4.2A7.28,7.28,0,0,1,99,36.55a8.67,8.67,0,0,1,4.1-.95,7.92,7.92,0,0,1,5.55,2,7.38,7.38,0,0,1,2.25,5.75V71.8h15.3V43.4a7.84,7.84,0,0,1,1-4.2,7.28,7.28,0,0,1,2.85-2.65,8.67,8.67,0,0,1,4.1-.95,7.92,7.92,0,0,1,5.55,2A7.38,7.38,0,0,1,142,43.4V71.8h15.3V41.7a20.31,20.31,0,0,0-2.55-10.45A17.56,17.56,0,0,0,147.85,24.55Z"/><path class="cls-1" d="M199.7,25.2A25.4,25.4,0,0,0,187,22.1a26.75,26.75,0,0,0-13.3,3.3,24.7,24.7,0,0,0-12.8,22.1,24.79,24.79,0,0,0,3.5,13.1,24.26,24.26,0,0,0,9.65,9.05,29.68,29.68,0,0,0,14,3.25,29.16,29.16,0,0,0,11.2-2.1,22.68,22.68,0,0,0,8.7-6.3l-8.4-8.4a14.25,14.25,0,0,1-5.1,3.75A16.34,16.34,0,0,1,188,61.1a13.24,13.24,0,0,1-6.75-1.65,11.11,11.11,0,0,1-4.4-4.7,12.22,12.22,0,0,1-.84-2.17l34.79-.08c.26-1.27.45-2.38.55-3.35a26.78,26.78,0,0,0,.15-2.75,24.92,24.92,0,0,0-3.15-12.6A22.61,22.61,0,0,0,199.7,25.2ZM176,42.08a11.92,11.92,0,0,1,.74-2,10.87,10.87,0,0,1,4.1-4.65,11.57,11.57,0,0,1,6.25-1.65,10.74,10.74,0,0,1,5.75,1.45,9.09,9.09,0,0,1,3.55,4.2,14.09,14.09,0,0,1,.79,2.57Z"/><path class="cls-1" d="M248.49,26.44a16.89,16.89,0,0,0-3.75-2.39,20.88,20.88,0,0,0-9-1.85A22.29,22.29,0,0,0,215.69,34a25,25,0,0,0-3,12.25,25.06,25.06,0,0,0,3,12.2,22.83,22.83,0,0,0,8.21,8.7,22.24,22.24,0,0,0,11.89,3.2,20.4,20.4,0,0,0,8.9-1.9,17.37,17.37,0,0,0,3.5-2.18V69.3a9.86,9.86,0,0,1-3.25,7.9c-2.16,1.86-5.15,2.8-8.95,2.8a17.54,17.54,0,0,1-7.84-1.6,18.11,18.11,0,0,1-5.86-4.7l-9.39,9.4a22.93,22.93,0,0,0,9.54,7.75,33.74,33.74,0,0,0,14.05,2.75,30.39,30.39,0,0,0,13.91-3.1A24.08,24.08,0,0,0,260,81.9a23.65,23.65,0,0,0,3.5-13V23.2h-15Zm-.65,25.11a9.4,9.4,0,0,1-3.6,3.75,11.68,11.68,0,0,1-11.09,0,9.69,9.69,0,0,1-3.66-3.85,11.09,11.09,0,0,1-1.3-5.25,11.23,11.23,0,0,1,1.3-5.4,9.65,9.65,0,0,1,3.7-3.8,10.76,10.76,0,0,1,5.5-1.4,10.64,10.64,0,0,1,5.55,1.4,9.34,9.34,0,0,1,3.6,3.8,11.43,11.43,0,0,1,1.25,5.4A11.15,11.15,0,0,1,247.84,51.55Z"/><path class="cls-1" d="M305,23.2v4.05a17.41,17.41,0,0,0-4.55-3.15,20.07,20.07,0,0,0-8.84-1.9,22,22,0,0,0-12,3.3,23.48,23.48,0,0,0-8.3,9,27,27,0,0,0-3.05,13,27,27,0,0,0,3.05,13,23.48,23.48,0,0,0,8.3,9,22,22,0,0,0,12,3.3,20.39,20.39,0,0,0,8.89-1.9,17.23,17.23,0,0,0,4.5-3.08v4h15V23.2ZM302.6,55.75A10.25,10.25,0,0,1,294.69,59a10.6,10.6,0,0,1-9.5-5.6,12.27,12.27,0,0,1-1.39-5.9,12.16,12.16,0,0,1,1.44-6,10.65,10.65,0,0,1,3.91-4,11.71,11.71,0,0,1,11.29,0,9.84,9.84,0,0,1,3.8,4,12.7,12.7,0,0,1,1.36,6A11.7,11.7,0,0,1,302.6,55.75Z"/><path class="cls-1" d="M63.55,10.45a36.14,36.14,0,0,0-11.8-7.7A38.55,38.55,0,0,0,37.1,0H21a25.13,25.13,0,0,1-2.6,11.55,19.08,19.08,0,0,1-7.35,7.85A21.33,21.33,0,0,1,0,22.2V36.5H0A36.4,36.4,0,0,0,2.8,50.75,35.26,35.26,0,0,0,10.7,62.4a37.11,37.11,0,0,0,11.85,7.8A38.22,38.22,0,0,0,37.3,73a37.72,37.72,0,0,0,14.55-2.8A36.38,36.38,0,0,0,63.6,62.45a35.7,35.7,0,0,0,7.8-11.6A36.72,36.72,0,0,0,74.2,36.5a37,37,0,0,0-2.8-14.45A35.37,35.37,0,0,0,63.55,10.45Zm-8,37.6a19.08,19.08,0,0,1-7.35,7.85,21.33,21.33,0,0,1-11,2.8,22.36,22.36,0,0,1-8.6-1.6,18.6,18.6,0,0,1-6.65-4.55,20.52,20.52,0,0,1-4.25-7,26.3,26.3,0,0,1-1.5-9H.22a37.65,37.65,0,0,0,14.53-2.8A36.38,36.38,0,0,0,26.5,26a35.7,35.7,0,0,0,7.8-11.6A36.65,36.65,0,0,0,37.1.05V14.3a22.79,22.79,0,0,1,8.55,1.55,18.66,18.66,0,0,1,6.65,4.5,20.38,20.38,0,0,1,4.3,7,25.91,25.91,0,0,1,1.5,9A25.15,25.15,0,0,1,55.5,48.05Z"/></g></g></svg>